<svg width="36" height="36" viewBox="0 0 36 36" fill="none" xmlns="http://www.w3.org/2000/svg">
<path d="M32.4001 13.2714V26.1C32.4001 27.2934 31.926 28.438 31.0821 29.2819C30.2382 30.1258 29.0936 30.6 27.9001 30.6H8.1001C6.90662 30.6 5.76203 30.1258 4.91812 29.2819C4.0742 28.438 3.6001 27.2934 3.6001 26.1V13.2714L17.5429 21.4757C17.6814 21.5574 17.8393 21.6005 18.0001 21.6005C18.1609 21.6005 18.3188 21.5574 18.4573 21.4757L32.4001 13.2714ZM27.9001 7.19995C29.0074 7.19978 30.0758 7.60784 30.9011 8.34608C31.7263 9.08432 32.2504 10.1009 32.3731 11.2014L18.0001 19.656L3.6271 11.2014C3.74978 10.1009 4.27388 9.08432 5.09913 8.34608C5.92438 7.60784 6.99283 7.19978 8.1001 7.19995H27.9001Z" fill="white"/>
</svg>
