<svg width="36" height="36" viewBox="0 0 36 36" fill="none" xmlns="http://www.w3.org/2000/svg">
<g clip-path="url(#clip0_433_2)">
<path d="M29.1942 3.49752C30.3696 4.41912 31.1796 5.90772 31.5108 7.46652C31.5509 7.47921 31.59 7.49485 31.6278 7.51332L35.3088 9.21612C35.5145 9.3106 35.689 9.46198 35.8114 9.6524C35.9339 9.84282 35.9994 10.0643 36 10.2907V32.5513C35.9987 32.7362 35.9545 32.9183 35.871 33.0833C35.7875 33.2483 35.6669 33.3917 35.5187 33.5023C35.3705 33.6128 35.1986 33.6875 35.0167 33.7206C34.8347 33.7536 34.6476 33.744 34.47 33.6925L24.2658 30.8125L12.1338 34.1569C11.9149 34.217 11.6835 34.2145 11.466 34.1497L0.8532 30.9907C0.607897 30.9187 0.392381 30.7694 0.238672 30.5651C0.0849617 30.3608 0.00125939 30.1124 0 29.8567L0 7.19652C0 6.40452 0.7704 5.83572 1.539 6.05892L11.8026 9.04872L17.019 7.45212C17.0908 7.43092 17.1643 7.41587 17.2386 7.40712C17.4402 6.22632 18.0036 5.09232 18.9486 3.98712C20.07 2.67312 22.0374 1.90272 23.9544 1.81092C25.9434 1.71552 27.4626 2.14032 29.1924 3.49572L29.1942 3.49752ZM2.3994 8.78592V28.9729L11.1654 31.5811V11.3365L2.3994 8.78592ZM17.1756 9.89112L13.5648 10.9945V31.2967L22.6818 28.7875V22.8565C22.6818 22.2013 23.22 21.6703 23.8824 21.6703C24.5448 21.6703 25.0812 22.2013 25.0812 22.8583V28.5769L33.6006 30.9799V11.0449L31.5846 10.1089C31.5504 10.3069 31.5072 10.5013 31.4532 10.6903C31.0618 12.0705 30.4051 13.3611 29.52 14.4901L25.0614 20.0575C24.944 20.2039 24.7941 20.3209 24.6235 20.3991C24.453 20.4774 24.2665 20.5148 24.079 20.5083C23.8915 20.5018 23.708 20.4517 23.5433 20.3619C23.3785 20.2721 23.237 20.145 23.13 19.9909L18.963 13.9555C18.2754 12.9943 17.793 12.1375 17.5212 11.3707C17.3506 10.8921 17.2347 10.3958 17.1756 9.89112ZM24.0696 4.18332C22.7628 4.24632 21.42 4.77192 20.781 5.51892C20.0124 6.41892 19.6344 7.26132 19.5588 8.11452C19.4688 9.14232 19.53 9.86772 19.7856 10.5859C19.9746 11.1169 20.3508 11.7901 20.9322 12.6019L24.192 17.3215L27.63 13.0285C28.3236 12.1421 28.8378 11.129 29.1438 10.0459C29.5758 8.53392 28.9242 6.31272 27.7038 5.35872C26.4528 4.37772 25.5078 4.11312 24.0714 4.18332H24.0696ZM24.318 5.43792C26.3052 5.43792 27.918 7.03092 27.918 8.99652C27.9154 9.46659 27.8202 9.93155 27.6379 10.3648C27.4555 10.7981 27.1896 11.1912 26.8553 11.5217C26.521 11.8522 26.1248 12.1135 25.6895 12.2908C25.2541 12.4682 24.7881 12.558 24.318 12.5551C22.3308 12.5551 20.718 10.9621 20.718 8.99652C20.718 7.03092 22.3308 5.43792 24.318 5.43792ZM24.318 7.81032C24.1613 7.80937 24.0059 7.8393 23.8608 7.8984C23.7156 7.9575 23.5835 8.04461 23.472 8.15476C23.3605 8.26491 23.2718 8.39594 23.211 8.54037C23.1501 8.6848 23.1183 8.8398 23.1174 8.99652C23.1174 9.65172 23.6556 10.1827 24.318 10.1827C24.4747 10.1834 24.63 10.1533 24.7751 10.0939C24.9202 10.0346 25.0521 9.94732 25.1634 9.837C25.2748 9.72668 25.3633 9.59552 25.4239 9.451C25.4845 9.30648 25.5161 9.15144 25.5168 8.99472C25.5144 8.67883 25.3869 8.37678 25.1622 8.15476C24.9375 7.93274 24.6339 7.80888 24.318 7.81032Z" fill="white"/>
</g>
<defs>
<clipPath id="clip0_433_2">
<rect width="36" height="36" fill="white"/>
</clipPath>
</defs>
</svg>
