<svg width="21" height="21" viewBox="0 0 21 21" fill="none" xmlns="http://www.w3.org/2000/svg">
<path d="M10.2582 0.333344C11.5843 0.333344 12.856 0.860128 13.7937 1.79781C14.7314 2.73549 15.2582 4.00726 15.2582 5.33334C15.2582 6.65943 14.7314 7.9312 13.7937 8.86888C12.856 9.80656 11.5843 10.3333 10.2582 10.3333C8.9321 10.3333 7.66033 9.80656 6.72264 8.86888C5.78496 7.9312 5.25818 6.65943 5.25818 5.33334C5.25818 4.00726 5.78496 2.73549 6.72264 1.79781C7.66033 0.860128 8.9321 0.333344 10.2582 0.333344ZM10.2582 12.8333C15.7832 12.8333 20.2582 15.0708 20.2582 17.8333V20.3333H0.258179V17.8333C0.258179 15.0708 4.73318 12.8333 10.2582 12.8333Z" fill="#fff"/>
</svg>
