<svg width="37" height="40" viewBox="0 0 37 40" fill="none" xmlns="http://www.w3.org/2000/svg">
<path d="M23.9946 8.92192L23.4484 9.34076L23.6446 10.0005L24.5951 13.1968L21.8479 11.3061L21.2809 10.9159L20.714 11.3061L17.9667 13.1968L18.9172 10.0005L19.1135 9.34076L18.5672 8.92192L15.9154 6.88853L19.2617 6.79412L19.9478 6.77477L20.1764 6.12767L21.2809 3.00166L22.3854 6.12767L22.6141 6.77477L23.3001 6.79412L26.6464 6.88853L23.9946 8.92192Z" stroke="#ECA00D" stroke-width="2"/>
<path d="M32.4764 20.9341L31.9269 21.3529L32.1242 22.015L32.4545 23.1233L31.5055 22.4702L30.9386 22.08L30.3717 22.4702L29.4227 23.1233L29.753 22.015L29.9503 21.3529L29.4008 20.9341L28.4976 20.2457L29.6301 20.2182L30.3188 20.2015L30.5486 19.552L30.9386 18.4498L31.3286 19.552L31.5584 20.2015L32.2471 20.2182L33.3796 20.2457L32.4764 20.9341Z" stroke="#ECA00D" stroke-width="2"/>
<path d="M8.72947 9.8218C8.72947 21.5706 18.2367 31.0778 29.9855 31.0778C31.0097 31.0778 32.0145 31.0005 33 30.8653C29.8889 35.6382 24.5169 38.8073 18.3913 38.8073C8.78744 38.8073 1 31.0199 1 21.416C1 15.2904 4.16908 9.91842 8.94203 6.80731C8.80676 7.79282 8.72947 8.79765 8.72947 9.8218Z" stroke="#ECA00D" stroke-width="2" stroke-linecap="round" stroke-linejoin="round"/>
</svg>
